<mxfile host="app.diagrams.net" modified="2021-09-21T03:14:02.611Z" agent="5.0 (Macintosh; Intel Mac OS X 10_15_7) AppleWebKit/605.1.15 (KHTML, like Gecko) Version/14.1.2 Safari/605.1.15" etag="3YHG8PHmma1860zbfpv0" version="15.2.9" type="github">
  <diagram id="R2lEEEUBdFMjLlhIrx00" name="Page-1">
    <mxGraphModel dx="1186" dy="742" grid="1" gridSize="10" guides="1" tooltips="1" connect="1" arrows="1" fold="1" page="1" pageScale="1" pageWidth="850" pageHeight="1100" math="0" shadow="0" extFonts="Permanent Marker^https://fonts.googleapis.com/css?family=Permanent+Marker">
      <root>
        <mxCell id="0" />
        <mxCell id="1" parent="0" />
        <mxCell id="40DA8UFxajPVsc8yKgOy-1" value="COMPANY" style="rounded=0;whiteSpace=wrap;html=1;" vertex="1" parent="1">
          <mxGeometry x="40" y="170" width="120" height="60" as="geometry" />
        </mxCell>
        <mxCell id="40DA8UFxajPVsc8yKgOy-2" value="PART&lt;br&gt;" style="rounded=0;whiteSpace=wrap;html=1;" vertex="1" parent="1">
          <mxGeometry x="70" y="400" width="120" height="60" as="geometry" />
        </mxCell>
        <mxCell id="40DA8UFxajPVsc8yKgOy-4" value="EMPLOYEE&lt;br&gt;" style="rounded=0;whiteSpace=wrap;html=1;" vertex="1" parent="1">
          <mxGeometry x="360" y="170" width="120" height="60" as="geometry" />
        </mxCell>
        <mxCell id="40DA8UFxajPVsc8yKgOy-6" value="" style="endArrow=none;html=1;exitX=1;exitY=0.5;exitDx=0;exitDy=0;entryX=0;entryY=0.5;entryDx=0;entryDy=0;" edge="1" parent="1" source="40DA8UFxajPVsc8yKgOy-1" target="40DA8UFxajPVsc8yKgOy-5">
          <mxGeometry width="50" height="50" relative="1" as="geometry">
            <mxPoint x="180" y="470" as="sourcePoint" />
            <mxPoint x="230" y="420" as="targetPoint" />
          </mxGeometry>
        </mxCell>
        <mxCell id="40DA8UFxajPVsc8yKgOy-7" value="" style="endArrow=none;html=1;exitX=1;exitY=0.5;exitDx=0;exitDy=0;entryX=0;entryY=0.5;entryDx=0;entryDy=0;startArrow=none;" edge="1" parent="1" source="40DA8UFxajPVsc8yKgOy-5" target="40DA8UFxajPVsc8yKgOy-4">
          <mxGeometry width="50" height="50" relative="1" as="geometry">
            <mxPoint x="210" y="200" as="sourcePoint" />
            <mxPoint x="300" y="220" as="targetPoint" />
          </mxGeometry>
        </mxCell>
        <mxCell id="40DA8UFxajPVsc8yKgOy-18" value="CUSTOMER" style="rounded=0;whiteSpace=wrap;html=1;" vertex="1" parent="1">
          <mxGeometry x="575" y="422.5" width="120" height="60" as="geometry" />
        </mxCell>
        <mxCell id="40DA8UFxajPVsc8yKgOy-20" value="last name&lt;br&gt;" style="ellipse;whiteSpace=wrap;html=1;" vertex="1" parent="1">
          <mxGeometry x="280" y="80" width="130" height="50" as="geometry" />
        </mxCell>
        <mxCell id="40DA8UFxajPVsc8yKgOy-21" value="" style="endArrow=none;html=1;exitX=0.5;exitY=0;exitDx=0;exitDy=0;" edge="1" parent="1" source="40DA8UFxajPVsc8yKgOy-4">
          <mxGeometry width="50" height="50" relative="1" as="geometry">
            <mxPoint x="420" y="160" as="sourcePoint" />
            <mxPoint x="350" y="130" as="targetPoint" />
          </mxGeometry>
        </mxCell>
        <mxCell id="40DA8UFxajPVsc8yKgOy-22" value="first name" style="ellipse;whiteSpace=wrap;html=1;" vertex="1" parent="1">
          <mxGeometry x="450" y="70" width="130" height="50" as="geometry" />
        </mxCell>
        <mxCell id="40DA8UFxajPVsc8yKgOy-23" value="" style="endArrow=none;html=1;exitX=0.5;exitY=0;exitDx=0;exitDy=0;" edge="1" parent="1" source="40DA8UFxajPVsc8yKgOy-4">
          <mxGeometry width="50" height="50" relative="1" as="geometry">
            <mxPoint x="590" y="160" as="sourcePoint" />
            <mxPoint x="520" y="120" as="targetPoint" />
          </mxGeometry>
        </mxCell>
        <mxCell id="40DA8UFxajPVsc8yKgOy-28" value="Zip Code" style="ellipse;whiteSpace=wrap;html=1;" vertex="1" parent="1">
          <mxGeometry x="550" y="160" width="130" height="50" as="geometry" />
        </mxCell>
        <mxCell id="40DA8UFxajPVsc8yKgOy-29" value="" style="endArrow=none;html=1;exitX=1;exitY=0.5;exitDx=0;exitDy=0;entryX=0;entryY=0.5;entryDx=0;entryDy=0;" edge="1" parent="1" source="40DA8UFxajPVsc8yKgOy-4" target="40DA8UFxajPVsc8yKgOy-28">
          <mxGeometry width="50" height="50" relative="1" as="geometry">
            <mxPoint x="500" y="200" as="sourcePoint" />
            <mxPoint x="570" y="190" as="targetPoint" />
          </mxGeometry>
        </mxCell>
        <mxCell id="40DA8UFxajPVsc8yKgOy-30" value="&lt;u&gt;employee number&lt;/u&gt;" style="ellipse;whiteSpace=wrap;html=1;" vertex="1" parent="1">
          <mxGeometry x="570" y="250" width="130" height="50" as="geometry" />
        </mxCell>
        <mxCell id="40DA8UFxajPVsc8yKgOy-31" value="" style="endArrow=none;html=1;exitX=1;exitY=0.5;exitDx=0;exitDy=0;entryX=0;entryY=0.5;entryDx=0;entryDy=0;" edge="1" parent="1" source="40DA8UFxajPVsc8yKgOy-4" target="40DA8UFxajPVsc8yKgOy-30">
          <mxGeometry width="50" height="50" relative="1" as="geometry">
            <mxPoint x="570" y="257.5" as="sourcePoint" />
            <mxPoint x="670" y="332.5" as="targetPoint" />
          </mxGeometry>
        </mxCell>
        <mxCell id="40DA8UFxajPVsc8yKgOy-32" value="Zip Code" style="ellipse;whiteSpace=wrap;html=1;" vertex="1" parent="1">
          <mxGeometry x="645" y="520" width="130" height="50" as="geometry" />
        </mxCell>
        <mxCell id="40DA8UFxajPVsc8yKgOy-34" value="" style="endArrow=none;html=1;exitX=0.5;exitY=0;exitDx=0;exitDy=0;entryX=1;entryY=0.5;entryDx=0;entryDy=0;" edge="1" parent="1" source="40DA8UFxajPVsc8yKgOy-32" target="40DA8UFxajPVsc8yKgOy-18">
          <mxGeometry width="50" height="50" relative="1" as="geometry">
            <mxPoint x="880" y="457.5" as="sourcePoint" />
            <mxPoint x="810" y="417.5" as="targetPoint" />
          </mxGeometry>
        </mxCell>
        <mxCell id="40DA8UFxajPVsc8yKgOy-35" value="last name&lt;br&gt;" style="ellipse;whiteSpace=wrap;html=1;" vertex="1" parent="1">
          <mxGeometry x="710" y="442.5" width="130" height="50" as="geometry" />
        </mxCell>
        <mxCell id="40DA8UFxajPVsc8yKgOy-36" value="" style="endArrow=none;html=1;exitX=0;exitY=0.5;exitDx=0;exitDy=0;entryX=1;entryY=0.5;entryDx=0;entryDy=0;" edge="1" parent="1" source="40DA8UFxajPVsc8yKgOy-35" target="40DA8UFxajPVsc8yKgOy-18">
          <mxGeometry width="50" height="50" relative="1" as="geometry">
            <mxPoint x="1010" y="422.5" as="sourcePoint" />
            <mxPoint x="950" y="337.5" as="targetPoint" />
          </mxGeometry>
        </mxCell>
        <mxCell id="40DA8UFxajPVsc8yKgOy-37" value="last name&lt;br&gt;" style="ellipse;whiteSpace=wrap;html=1;" vertex="1" parent="1">
          <mxGeometry x="710" y="379" width="130" height="50" as="geometry" />
        </mxCell>
        <mxCell id="40DA8UFxajPVsc8yKgOy-38" value="" style="endArrow=none;html=1;exitX=0;exitY=0.5;exitDx=0;exitDy=0;entryX=1;entryY=0.5;entryDx=0;entryDy=0;" edge="1" parent="1" source="40DA8UFxajPVsc8yKgOy-37" target="40DA8UFxajPVsc8yKgOy-18">
          <mxGeometry width="50" height="50" relative="1" as="geometry">
            <mxPoint x="1030" y="342.5" as="sourcePoint" />
            <mxPoint x="970" y="257.5" as="targetPoint" />
          </mxGeometry>
        </mxCell>
        <mxCell id="40DA8UFxajPVsc8yKgOy-40" value="&lt;u&gt;customer number&lt;/u&gt;" style="ellipse;whiteSpace=wrap;html=1;" vertex="1" parent="1">
          <mxGeometry x="705" y="300" width="130" height="50" as="geometry" />
        </mxCell>
        <mxCell id="40DA8UFxajPVsc8yKgOy-41" value="" style="endArrow=none;html=1;exitX=0;exitY=0.5;exitDx=0;exitDy=0;entryX=1;entryY=0.5;entryDx=0;entryDy=0;" edge="1" parent="1" source="40DA8UFxajPVsc8yKgOy-40" target="40DA8UFxajPVsc8yKgOy-18">
          <mxGeometry width="50" height="50" relative="1" as="geometry">
            <mxPoint x="1035" y="280" as="sourcePoint" />
            <mxPoint x="975" y="195" as="targetPoint" />
          </mxGeometry>
        </mxCell>
        <mxCell id="40DA8UFxajPVsc8yKgOy-43" value="expected ship date" style="ellipse;whiteSpace=wrap;html=1;" vertex="1" parent="1">
          <mxGeometry x="500" y="752.5" width="130" height="50" as="geometry" />
        </mxCell>
        <mxCell id="40DA8UFxajPVsc8yKgOy-44" value="" style="endArrow=none;html=1;exitX=0.5;exitY=0;exitDx=0;exitDy=0;entryX=0.5;entryY=1;entryDx=0;entryDy=0;" edge="1" parent="1" source="40DA8UFxajPVsc8yKgOy-43" target="40DA8UFxajPVsc8yKgOy-76">
          <mxGeometry width="50" height="50" relative="1" as="geometry">
            <mxPoint x="630" y="635" as="sourcePoint" />
            <mxPoint x="580" y="540" as="targetPoint" />
          </mxGeometry>
        </mxCell>
        <mxCell id="40DA8UFxajPVsc8yKgOy-45" value="date of receipt" style="ellipse;whiteSpace=wrap;html=1;" vertex="1" parent="1">
          <mxGeometry x="340" y="752.5" width="130" height="50" as="geometry" />
        </mxCell>
        <mxCell id="40DA8UFxajPVsc8yKgOy-46" value="" style="endArrow=none;html=1;exitX=0.5;exitY=0;exitDx=0;exitDy=0;entryX=0.5;entryY=1;entryDx=0;entryDy=0;" edge="1" parent="1" source="40DA8UFxajPVsc8yKgOy-45" target="40DA8UFxajPVsc8yKgOy-76">
          <mxGeometry width="50" height="50" relative="1" as="geometry">
            <mxPoint x="470" y="665" as="sourcePoint" />
            <mxPoint x="580" y="540" as="targetPoint" />
          </mxGeometry>
        </mxCell>
        <mxCell id="40DA8UFxajPVsc8yKgOy-47" value="&lt;u&gt;order name&lt;/u&gt;" style="ellipse;whiteSpace=wrap;html=1;" vertex="1" parent="1">
          <mxGeometry x="270" y="670" width="130" height="50" as="geometry" />
        </mxCell>
        <mxCell id="40DA8UFxajPVsc8yKgOy-48" value="" style="endArrow=none;html=1;entryX=0.5;entryY=1;entryDx=0;entryDy=0;exitX=0.5;exitY=0;exitDx=0;exitDy=0;" edge="1" parent="1" source="40DA8UFxajPVsc8yKgOy-47" target="40DA8UFxajPVsc8yKgOy-76">
          <mxGeometry width="50" height="50" relative="1" as="geometry">
            <mxPoint x="340" y="662.5" as="sourcePoint" />
            <mxPoint x="580" y="540" as="targetPoint" />
          </mxGeometry>
        </mxCell>
        <mxCell id="40DA8UFxajPVsc8yKgOy-49" value="specified quantities" style="ellipse;whiteSpace=wrap;html=1;" vertex="1" parent="1">
          <mxGeometry x="560" y="670" width="130" height="50" as="geometry" />
        </mxCell>
        <mxCell id="40DA8UFxajPVsc8yKgOy-50" value="" style="endArrow=none;html=1;exitX=0.5;exitY=0;exitDx=0;exitDy=0;entryX=0.5;entryY=1;entryDx=0;entryDy=0;" edge="1" parent="1" source="40DA8UFxajPVsc8yKgOy-49" target="40DA8UFxajPVsc8yKgOy-76">
          <mxGeometry width="50" height="50" relative="1" as="geometry">
            <mxPoint x="770" y="635" as="sourcePoint" />
            <mxPoint x="580" y="540" as="targetPoint" />
          </mxGeometry>
        </mxCell>
        <mxCell id="40DA8UFxajPVsc8yKgOy-51" value="the actual ship date" style="ellipse;whiteSpace=wrap;html=1;" vertex="1" parent="1">
          <mxGeometry x="420" y="690" width="130" height="50" as="geometry" />
        </mxCell>
        <mxCell id="40DA8UFxajPVsc8yKgOy-52" value="" style="endArrow=none;html=1;entryX=0.5;entryY=1;entryDx=0;entryDy=0;exitX=0.5;exitY=0;exitDx=0;exitDy=0;" edge="1" parent="1" source="40DA8UFxajPVsc8yKgOy-51" target="40DA8UFxajPVsc8yKgOy-76">
          <mxGeometry width="50" height="50" relative="1" as="geometry">
            <mxPoint x="580" y="745.5" as="sourcePoint" />
            <mxPoint x="580" y="540" as="targetPoint" />
          </mxGeometry>
        </mxCell>
        <mxCell id="40DA8UFxajPVsc8yKgOy-53" value="&lt;u&gt;part number&lt;/u&gt;" style="ellipse;whiteSpace=wrap;html=1;" vertex="1" parent="1">
          <mxGeometry y="530" width="130" height="50" as="geometry" />
        </mxCell>
        <mxCell id="40DA8UFxajPVsc8yKgOy-54" value="" style="endArrow=none;html=1;exitX=0.5;exitY=1;exitDx=0;exitDy=0;entryX=0.5;entryY=0;entryDx=0;entryDy=0;" edge="1" parent="1" target="40DA8UFxajPVsc8yKgOy-53" source="40DA8UFxajPVsc8yKgOy-2">
          <mxGeometry width="50" height="50" relative="1" as="geometry">
            <mxPoint x="-110" y="500" as="sourcePoint" />
            <mxPoint x="80" y="632.5" as="targetPoint" />
          </mxGeometry>
        </mxCell>
        <mxCell id="40DA8UFxajPVsc8yKgOy-55" value="part name" style="ellipse;whiteSpace=wrap;html=1;" vertex="1" parent="1">
          <mxGeometry x="75" y="640" width="130" height="50" as="geometry" />
        </mxCell>
        <mxCell id="40DA8UFxajPVsc8yKgOy-56" value="" style="endArrow=none;html=1;entryX=0.5;entryY=0;entryDx=0;entryDy=0;" edge="1" parent="1" target="40DA8UFxajPVsc8yKgOy-55">
          <mxGeometry width="50" height="50" relative="1" as="geometry">
            <mxPoint x="130" y="460" as="sourcePoint" />
            <mxPoint x="120" y="752.5" as="targetPoint" />
          </mxGeometry>
        </mxCell>
        <mxCell id="40DA8UFxajPVsc8yKgOy-57" value="price" style="ellipse;whiteSpace=wrap;html=1;" vertex="1" parent="1">
          <mxGeometry x="150" y="570" width="130" height="50" as="geometry" />
        </mxCell>
        <mxCell id="40DA8UFxajPVsc8yKgOy-58" value="" style="endArrow=none;html=1;exitX=0.5;exitY=1;exitDx=0;exitDy=0;entryX=0.5;entryY=0;entryDx=0;entryDy=0;" edge="1" parent="1" target="40DA8UFxajPVsc8yKgOy-57" source="40DA8UFxajPVsc8yKgOy-2">
          <mxGeometry width="50" height="50" relative="1" as="geometry">
            <mxPoint x="150" y="480" as="sourcePoint" />
            <mxPoint x="100" y="652.5" as="targetPoint" />
          </mxGeometry>
        </mxCell>
        <mxCell id="40DA8UFxajPVsc8yKgOy-60" value="quantity in stock" style="ellipse;whiteSpace=wrap;html=1;" vertex="1" parent="1">
          <mxGeometry x="200" y="500" width="130" height="50" as="geometry" />
        </mxCell>
        <mxCell id="40DA8UFxajPVsc8yKgOy-61" value="" style="endArrow=none;html=1;exitX=0.5;exitY=1;exitDx=0;exitDy=0;entryX=0.5;entryY=0;entryDx=0;entryDy=0;" edge="1" parent="1" target="40DA8UFxajPVsc8yKgOy-60" source="40DA8UFxajPVsc8yKgOy-2">
          <mxGeometry width="50" height="50" relative="1" as="geometry">
            <mxPoint x="350" y="410" as="sourcePoint" />
            <mxPoint x="300" y="582.5" as="targetPoint" />
          </mxGeometry>
        </mxCell>
        <mxCell id="40DA8UFxajPVsc8yKgOy-5" value="HAS&lt;br&gt;" style="rhombus;whiteSpace=wrap;html=1;" vertex="1" parent="1">
          <mxGeometry x="225" y="160" width="80" height="80" as="geometry" />
        </mxCell>
        <mxCell id="40DA8UFxajPVsc8yKgOy-65" value="" style="endArrow=none;html=1;exitX=1;exitY=0.5;exitDx=0;exitDy=0;entryX=0;entryY=0.5;entryDx=0;entryDy=0;" edge="1" parent="1" source="40DA8UFxajPVsc8yKgOy-2" target="40DA8UFxajPVsc8yKgOy-76">
          <mxGeometry width="50" height="50" relative="1" as="geometry">
            <mxPoint x="480" y="370" as="sourcePoint" />
            <mxPoint x="170" y="310" as="targetPoint" />
          </mxGeometry>
        </mxCell>
        <mxCell id="40DA8UFxajPVsc8yKgOy-73" value="(0, n)" style="text;html=1;strokeColor=none;fillColor=none;align=center;verticalAlign=middle;whiteSpace=wrap;rounded=0;" vertex="1" parent="1">
          <mxGeometry x="170" y="170" width="40" height="20" as="geometry" />
        </mxCell>
        <mxCell id="40DA8UFxajPVsc8yKgOy-74" value="(1, 1)" style="text;html=1;strokeColor=none;fillColor=none;align=center;verticalAlign=middle;whiteSpace=wrap;rounded=0;" vertex="1" parent="1">
          <mxGeometry x="300" y="170" width="40" height="20" as="geometry" />
        </mxCell>
        <mxCell id="40DA8UFxajPVsc8yKgOy-76" value="ORDER&lt;br&gt;" style="rhombus;whiteSpace=wrap;html=1;" vertex="1" parent="1">
          <mxGeometry x="445" y="412.5" width="80" height="80" as="geometry" />
        </mxCell>
        <mxCell id="40DA8UFxajPVsc8yKgOy-79" value="" style="endArrow=none;html=1;exitX=0.5;exitY=1;exitDx=0;exitDy=0;entryX=0.5;entryY=0;entryDx=0;entryDy=0;" edge="1" parent="1" source="40DA8UFxajPVsc8yKgOy-4" target="40DA8UFxajPVsc8yKgOy-76">
          <mxGeometry width="50" height="50" relative="1" as="geometry">
            <mxPoint x="290" y="340" as="sourcePoint" />
            <mxPoint x="640" y="397.5" as="targetPoint" />
          </mxGeometry>
        </mxCell>
        <mxCell id="40DA8UFxajPVsc8yKgOy-80" value="" style="endArrow=none;html=1;exitX=1;exitY=0.5;exitDx=0;exitDy=0;entryX=0;entryY=0.5;entryDx=0;entryDy=0;" edge="1" parent="1" source="40DA8UFxajPVsc8yKgOy-76" target="40DA8UFxajPVsc8yKgOy-18">
          <mxGeometry width="50" height="50" relative="1" as="geometry">
            <mxPoint x="580" y="435" as="sourcePoint" />
            <mxPoint x="930" y="492.5" as="targetPoint" />
          </mxGeometry>
        </mxCell>
        <mxCell id="40DA8UFxajPVsc8yKgOy-81" value="(1, N)" style="text;html=1;strokeColor=none;fillColor=none;align=center;verticalAlign=middle;whiteSpace=wrap;rounded=0;" vertex="1" parent="1">
          <mxGeometry x="330" y="412.5" width="40" height="20" as="geometry" />
        </mxCell>
        <mxCell id="40DA8UFxajPVsc8yKgOy-82" value="(1, 1)" style="text;html=1;strokeColor=none;fillColor=none;align=center;verticalAlign=middle;whiteSpace=wrap;rounded=0;" vertex="1" parent="1">
          <mxGeometry x="400" y="300" width="40" height="20" as="geometry" />
        </mxCell>
        <mxCell id="40DA8UFxajPVsc8yKgOy-83" value="(1, 1)" style="text;html=1;strokeColor=none;fillColor=none;align=center;verticalAlign=middle;whiteSpace=wrap;rounded=0;" vertex="1" parent="1">
          <mxGeometry x="530" y="409" width="40" height="20" as="geometry" />
        </mxCell>
      </root>
    </mxGraphModel>
  </diagram>
</mxfile>
